<svg width="16" height="16" viewBox="0 0 16 16" fill="none" xmlns="http://www.w3.org/2000/svg">
<rect width="16" height="16" rx="1" fill="url(#paint0_linear_229_1065)"/>
<path d="M11.3159 5.6576C10.9061 5.26209 10.356 5.02834 9.77454 5.00269C9.19308 4.97705 8.62279 5.16139 8.17674 5.51915C8.12544 5.5562 8.06363 5.57756 7.99942 5.58044C7.93482 5.57864 7.8725 5.55717 7.82153 5.51915C7.37569 5.16118 6.80544 4.97671 6.22401 5.00236C5.64257 5.028 5.09249 5.2619 4.68297 5.6576C4.24253 6.07896 4 6.63932 4 7.23525C4 7.83117 4.24253 8.39153 4.6681 8.79757L7.22036 11.6557C7.31653 11.7637 7.43605 11.8503 7.57065 11.9098C7.70526 11.9692 7.85174 12 8 12C8.14825 12 8.29473 11.9692 8.42934 11.9098C8.56394 11.8503 8.68346 11.7637 8.77963 11.6557L11.3165 8.81289C11.5337 8.6062 11.706 8.36035 11.8234 8.08955C11.9407 7.81875 12.0007 7.52839 12 7.23525C12.0005 6.94209 11.9403 6.65174 11.8229 6.38096C11.7055 6.11018 11.5331 5.86433 11.3159 5.6576Z" fill="white"/>
<defs>
<linearGradient id="paint0_linear_229_1065" x1="0" y1="0" x2="16" y2="16" gradientUnits="userSpaceOnUse">
<stop stop-color="#2D1CA3"/>
<stop offset="1" stop-color="#899C99"/>
</linearGradient>
</defs>
</svg>
